<svg width="128" height="128" viewBox="0 0 26 26" xmlns="http://www.w3.org/2000/svg"><rect x="0" y="0" width="26" height="26" rx="8" fill="none"/><svg xmlns="http://www.w3.org/2000/svg" viewBox="0 0 26 26" fill="#000000" x="0" y="0" width="26" height="26"><g fill="currentColor" fill-rule="evenodd" clip-rule="evenodd"><path d="M16.347 8.616a.5.5 0 0 1 .704.064l3.333 4a.5.5 0 0 1-.768.64l-3.333-4a.5.5 0 0 1 .064-.704Z"/><path d="M16.347 17.384a.5.5 0 0 1-.064-.704l3.333-4a.5.5 0 1 1 .768.64l-3.333 4a.5.5 0 0 1-.704.064Z"/><path d="M6.5 12.5h13a.5.5 0 1 1 0 1h-13a.5.5 0 0 1 0-1Z"/><path d="M9.653 17.384a.5.5 0 0 1-.704-.064l-3.333-4a.5.5 0 0 1 .768-.64l3.333 4a.5.5 0 0 1-.064.704Z"/><path d="M9.653 8.616a.5.5 0 0 1 .064.704l-3.333 4a.5.5 0 0 1-.768-.64l3.333-4a.5.5 0 0 1 .704-.064ZM7.5 13a.5.5 0 0 1 .5-.5h8a.5.5 0 0 1 0 1H8a.5.5 0 0 1-.5-.5Z"/><path d="M13 24.5c6.351 0 11.5-5.149 11.5-11.5S19.351 1.5 13 1.5S1.5 6.649 1.5 13S6.649 24.5 13 24.5Zm0 1c6.904 0 12.5-5.596 12.5-12.5S19.904.5 13 .5S.5 6.096.5 13S6.096 25.5 13 25.5Z"/></g></svg></svg>